<svg width="96" height="40" viewBox="0 0 96 40" fill="none" xmlns="http://www.w3.org/2000/svg">
<rect x="0.5" y="0.5" width="95" height="39" rx="19.5" stroke="#F1F1FA"/>
<path d="M20.009 22.5576L20.0001 22.5575L19.9912 22.5576C19.2017 22.567 18.4405 22.2648 17.8724 21.7167L14.2345 18.0401L17.8798 21.6854L17.8867 21.6924L17.8939 21.6991C18.4624 22.2386 19.2163 22.5394 20.0001 22.5394C20.7839 22.5394 21.5378 22.2386 22.1063 21.6991L22.1135 21.6924L22.1204 21.6854L25.7656 18.0403L22.1277 21.7167C21.5597 22.2648 20.7985 22.567 20.009 22.5576Z" fill="black" stroke="#7F3DFF" stroke-width="1.5"/>
<path d="M37.5376 14.8182V25H38.9992V17.6271H39.0937L42.0965 24.9851H43.3096L46.3124 17.6321H46.4069V25H47.8685V14.8182H46.0042L42.7627 22.733H42.6434L39.4019 14.8182H37.5376ZM53.1993 25.1541C55.352 25.1541 56.759 23.5781 56.759 21.2166C56.759 18.8402 55.352 17.2642 53.1993 17.2642C51.0466 17.2642 49.6396 18.8402 49.6396 21.2166C49.6396 23.5781 51.0466 25.1541 53.1993 25.1541ZM53.2043 23.9062C51.7973 23.9062 51.1411 22.6783 51.1411 21.2116C51.1411 19.75 51.7973 18.5071 53.2043 18.5071C54.6013 18.5071 55.2575 19.75 55.2575 21.2116C55.2575 22.6783 54.6013 23.9062 53.2043 23.9062ZM59.9047 20.4659C59.9047 19.2479 60.6505 18.5518 61.6846 18.5518C62.6938 18.5518 63.3053 19.2131 63.3053 20.3217V25H64.7918V20.1428C64.7918 18.2536 63.7528 17.2642 62.1917 17.2642C61.0432 17.2642 60.2925 17.7962 59.9395 18.6065H59.8451V17.3636H58.4182V25H59.9047V20.4659ZM70.3501 17.3636H68.784V15.5341H67.2975V17.3636H66.1789V18.5568H67.2975V23.0661C67.2925 24.4531 68.3515 25.1243 69.5248 25.0994C69.9971 25.0945 70.3153 25.005 70.4893 24.9403L70.2208 23.7124C70.1214 23.7322 69.9374 23.777 69.6988 23.777C69.2165 23.777 68.784 23.6179 68.784 22.7578V18.5568H70.3501V17.3636ZM73.645 20.4659C73.645 19.2479 74.4156 18.5518 75.4745 18.5518C76.4987 18.5518 77.1102 19.2031 77.1102 20.3217V25H78.5967V20.1428C78.5967 18.2386 77.5526 17.2642 75.9816 17.2642C74.7934 17.2642 74.0775 17.7812 73.7195 18.6065H73.6251V14.8182H72.1585V25H73.645V20.4659Z" fill="#212325"/>
</svg>
