<svg width="343" height="48" viewBox="0 0 343 48" fill="none" xmlns="http://www.w3.org/2000/svg">
<rect width="343" height="48" rx="8" fill="#EEE5FF"/>
<path d="M23.7727 20.7727H25.1364C25.0739 19.017 23.4545 17.7045 21.2045 17.7045C18.9773 17.7045 17.2273 19 17.2273 20.9545C17.2273 22.5227 18.3636 23.4545 20.1818 23.9773L21.6136 24.3864C22.8409 24.7273 23.9318 25.1591 23.9318 26.3182C23.9318 27.5909 22.7045 28.4318 21.0909 28.4318C19.7045 28.4318 18.4773 27.8182 18.3636 26.5H16.9091C17.0455 28.4091 18.5909 29.7045 21.0909 29.7045C23.7727 29.7045 25.2955 28.2273 25.2955 26.3409C25.2955 24.1591 23.2273 23.4545 22.0227 23.1364L20.8409 22.8182C19.9773 22.5909 18.5909 22.1364 18.5909 20.8864C18.5909 19.7727 19.6136 18.9545 21.1591 18.9545C22.5682 18.9545 23.6364 19.625 23.7727 20.7727ZM31.0895 29.6818C32.8622 29.6818 34.1577 28.7955 34.5668 27.4773L33.2713 27.1136C32.9304 28.0227 32.1406 28.4773 31.0895 28.4773C29.5156 28.4773 28.4304 27.4602 28.3679 25.5909H34.7031V25.0227C34.7031 21.7727 32.7713 20.6591 30.9531 20.6591C28.5895 20.6591 27.0213 22.5227 27.0213 25.2045C27.0213 27.8864 28.5668 29.6818 31.0895 29.6818ZM28.3679 24.4318C28.4588 23.0739 29.419 21.8636 30.9531 21.8636C32.4077 21.8636 33.3395 22.9545 33.3395 24.4318H28.3679ZM40.402 29.6818C42.1747 29.6818 43.4702 28.7955 43.8793 27.4773L42.5838 27.1136C42.2429 28.0227 41.4531 28.4773 40.402 28.4773C38.8281 28.4773 37.7429 27.4602 37.6804 25.5909H44.0156V25.0227C44.0156 21.7727 42.0838 20.6591 40.2656 20.6591C37.902 20.6591 36.3338 22.5227 36.3338 25.2045C36.3338 27.8864 37.8793 29.6818 40.402 29.6818ZM37.6804 24.4318C37.7713 23.0739 38.7315 21.8636 40.2656 21.8636C41.7202 21.8636 42.652 22.9545 42.652 24.4318H37.6804ZM51.419 32.7727C52.6293 32.7727 53.4815 32.1307 53.9872 30.7727L57.7031 20.7955L56.2372 20.7727L53.8281 27.7273H53.7372L51.3281 20.7727H49.8736L53.1009 29.5455L52.8509 30.2273C52.3622 31.5568 51.7599 31.6818 50.7827 31.4318L50.4418 32.6136C50.5781 32.6818 50.9645 32.7727 51.419 32.7727ZM62.7102 29.6818C65.0739 29.6818 66.6648 27.8864 66.6648 25.1818C66.6648 22.4545 65.0739 20.6591 62.7102 20.6591C60.3466 20.6591 58.7557 22.4545 58.7557 25.1818C58.7557 27.8864 60.3466 29.6818 62.7102 29.6818ZM62.7102 28.4773C60.9148 28.4773 60.0966 26.9318 60.0966 25.1818C60.0966 23.4318 60.9148 21.8636 62.7102 21.8636C64.5057 21.8636 65.3239 23.4318 65.3239 25.1818C65.3239 26.9318 64.5057 28.4773 62.7102 28.4773ZM74.2116 25.9318C74.2116 27.5682 72.9616 28.3182 71.9616 28.3182C70.848 28.3182 70.0526 27.5 70.0526 26.2273V20.7727H68.7116V26.3182C68.7116 28.5455 69.8935 29.6136 71.5298 29.6136C72.848 29.6136 73.7116 28.9091 74.1207 28.0227H74.2116V29.5H75.5526V20.7727H74.2116V25.9318ZM78.0085 29.5H79.3494V23.9773C79.3494 22.7955 80.2812 21.9318 81.554 21.9318C81.9119 21.9318 82.2812 22 82.3722 22.0227V20.6591C82.2188 20.6477 81.8665 20.6364 81.6676 20.6364C80.6222 20.6364 79.7131 21.2273 79.3949 22.0909H79.304V20.7727H78.0085V29.5ZM92.348 20.7727H90.3935V19.8864C90.3935 19.0227 90.7571 18.5682 91.6435 18.5682C92.0298 18.5682 92.2571 18.6591 92.3935 18.7045L92.7798 17.5455C92.5753 17.4545 92.1662 17.3182 91.5071 17.3182C90.2571 17.3182 89.0526 18.0682 89.0526 19.5682V20.7727H87.6435V21.9091H89.0526V29.5H90.3935V21.9091H92.348V20.7727ZM94.2273 29.5H95.5682V20.7727H94.2273V29.5ZM94.9091 19.3182C95.4318 19.3182 95.8636 18.9091 95.8636 18.4091C95.8636 17.9091 95.4318 17.5 94.9091 17.5C94.3864 17.5 93.9545 17.9091 93.9545 18.4091C93.9545 18.9091 94.3864 19.3182 94.9091 19.3182ZM99.3651 24.25C99.3651 22.7273 100.308 21.8636 101.592 21.8636C102.837 21.8636 103.592 22.6761 103.592 24.0455V29.5H104.933V23.9545C104.933 21.7273 103.746 20.6591 101.979 20.6591C100.661 20.6591 99.8423 21.25 99.4332 22.1364H99.3196V20.7727H98.0241V29.5H99.3651V24.25ZM109.952 29.7045C111.474 29.7045 112.27 28.8864 112.543 28.3182H112.611V29.5H113.952V23.75C113.952 20.9773 111.838 20.6591 110.724 20.6591C109.406 20.6591 107.906 21.1136 107.224 22.7045L108.497 23.1591C108.793 22.5227 109.491 21.8409 110.77 21.8409C112.003 21.8409 112.611 22.4943 112.611 23.6136V23.6591C112.611 24.3068 111.952 24.25 110.361 24.4545C108.741 24.6648 106.974 25.0227 106.974 27.0227C106.974 28.7273 108.293 29.7045 109.952 29.7045ZM110.156 28.5C109.088 28.5 108.315 28.0227 108.315 27.0909C108.315 26.0682 109.247 25.75 110.293 25.6136C110.861 25.5455 112.384 25.3864 112.611 25.1136V26.3409C112.611 27.4318 111.747 28.5 110.156 28.5ZM117.74 24.25C117.74 22.7273 118.683 21.8636 119.967 21.8636C121.212 21.8636 121.967 22.6761 121.967 24.0455V29.5H123.308V23.9545C123.308 21.7273 122.121 20.6591 120.354 20.6591C119.036 20.6591 118.217 21.25 117.808 22.1364H117.695V20.7727H116.399V29.5H117.74V24.25ZM129.304 29.6818C131.236 29.6818 132.509 28.5 132.736 26.9545H131.395C131.145 27.9091 130.349 28.4773 129.304 28.4773C127.713 28.4773 126.69 27.1591 126.69 25.1364C126.69 23.1591 127.736 21.8636 129.304 21.8636C130.486 21.8636 131.19 22.5909 131.395 23.3864H132.736C132.509 21.75 131.122 20.6591 129.281 20.6591C126.918 20.6591 125.349 22.5227 125.349 25.1818C125.349 27.7955 126.849 29.6818 129.304 29.6818ZM134.696 29.5H136.037V20.7727H134.696V29.5ZM135.378 19.3182C135.901 19.3182 136.332 18.9091 136.332 18.4091C136.332 17.9091 135.901 17.5 135.378 17.5C134.855 17.5 134.423 17.9091 134.423 18.4091C134.423 18.9091 134.855 19.3182 135.378 19.3182ZM141.061 29.7045C142.584 29.7045 143.379 28.8864 143.652 28.3182H143.72V29.5H145.061V23.75C145.061 20.9773 142.947 20.6591 141.834 20.6591C140.516 20.6591 139.016 21.1136 138.334 22.7045L139.607 23.1591C139.902 22.5227 140.601 21.8409 141.879 21.8409C143.112 21.8409 143.72 22.4943 143.72 23.6136V23.6591C143.72 24.3068 143.061 24.25 141.47 24.4545C139.851 24.6648 138.084 25.0227 138.084 27.0227C138.084 28.7273 139.402 29.7045 141.061 29.7045ZM141.266 28.5C140.197 28.5 139.425 28.0227 139.425 27.0909C139.425 26.0682 140.357 25.75 141.402 25.6136C141.97 25.5455 143.493 25.3864 143.72 25.1136V26.3409C143.72 27.4318 142.857 28.5 141.266 28.5ZM148.849 17.8636H147.509V29.5H148.849V17.8636ZM155.805 29.5H157.146V23.9773C157.146 22.7955 158.078 21.9318 159.351 21.9318C159.709 21.9318 160.078 22 160.169 22.0227V20.6591C160.016 20.6477 159.663 20.6364 159.464 20.6364C158.419 20.6364 157.51 21.2273 157.192 22.0909H157.101V20.7727H155.805V29.5ZM165.152 29.6818C166.925 29.6818 168.22 28.7955 168.629 27.4773L167.334 27.1136C166.993 28.0227 166.203 28.4773 165.152 28.4773C163.578 28.4773 162.493 27.4602 162.43 25.5909H168.766V25.0227C168.766 21.7727 166.834 20.6591 165.016 20.6591C162.652 20.6591 161.084 22.5227 161.084 25.2045C161.084 27.8864 162.629 29.6818 165.152 29.6818ZM162.43 24.4318C162.521 23.0739 163.482 21.8636 165.016 21.8636C166.47 21.8636 167.402 22.9545 167.402 24.4318H162.43ZM170.805 32.7727H172.146V28.1591H172.26C172.555 28.6364 173.124 29.6818 174.805 29.6818C176.987 29.6818 178.51 27.9318 178.51 25.1591C178.51 22.4091 176.987 20.6591 174.783 20.6591C173.078 20.6591 172.555 21.7045 172.26 22.1591H172.101V20.7727H170.805V32.7727ZM172.124 25.1364C172.124 23.1818 172.987 21.8636 174.624 21.8636C176.328 21.8636 177.169 23.2955 177.169 25.1364C177.169 27 176.305 28.4773 174.624 28.4773C173.01 28.4773 172.124 27.1136 172.124 25.1364ZM184.101 29.6818C186.464 29.6818 188.055 27.8864 188.055 25.1818C188.055 22.4545 186.464 20.6591 184.101 20.6591C181.737 20.6591 180.146 22.4545 180.146 25.1818C180.146 27.8864 181.737 29.6818 184.101 29.6818ZM184.101 28.4773C182.305 28.4773 181.487 26.9318 181.487 25.1818C181.487 23.4318 182.305 21.8636 184.101 21.8636C185.896 21.8636 186.714 23.4318 186.714 25.1818C186.714 26.9318 185.896 28.4773 184.101 28.4773ZM190.102 29.5H191.443V23.9773C191.443 22.7955 192.375 21.9318 193.648 21.9318C194.006 21.9318 194.375 22 194.466 22.0227V20.6591C194.312 20.6477 193.96 20.6364 193.761 20.6364C192.716 20.6364 191.807 21.2273 191.489 22.0909H191.398V20.7727H190.102V29.5ZM200.398 20.7727H198.534V18.6818H197.193V20.7727H195.875V21.9091H197.193V27.3636C197.193 28.8864 198.42 29.6136 199.557 29.6136C200.057 29.6136 200.375 29.5227 200.557 29.4545L200.284 28.25C200.17 28.2727 199.989 28.3182 199.693 28.3182C199.102 28.3182 198.534 28.1364 198.534 27V21.9091H200.398V20.7727Z" fill="#7F3DFF"/>
<path d="M315.608 32.9903L315.6 32.9901L315.592 32.99C315.526 32.9898 315.461 32.9764 315.4 32.9506C315.339 32.9249 315.283 32.8873 315.237 32.84L315.235 32.8375C315.142 32.7439 315.089 32.6171 315.089 32.485C315.089 32.3532 315.141 32.2267 315.234 32.1331C315.234 32.1329 315.234 32.1327 315.235 32.1325L320.894 26.4736L320.894 26.4734C321.549 25.8171 321.917 24.9275 321.917 24C321.917 23.0725 321.549 22.183 320.894 21.5267L320.894 21.5265L315.25 15.8825C315.174 15.7887 315.135 15.6708 315.14 15.5503C315.145 15.4244 315.197 15.3051 315.286 15.216C315.375 15.127 315.494 15.0748 315.62 15.07C315.741 15.0653 315.859 15.1046 315.953 15.1803L321.647 20.814C321.647 20.8143 321.647 20.8145 321.648 20.8148C322.066 21.2326 322.399 21.7289 322.625 22.2753C322.852 22.822 322.969 23.4081 322.969 24C322.969 24.5919 322.852 25.178 322.625 25.7247C322.398 26.2714 322.066 26.768 321.647 27.186L321.647 27.1862L315.987 32.8362L315.987 32.8361L315.983 32.8403C315.934 32.8901 315.876 32.9291 315.811 32.9549C315.746 32.9807 315.677 32.9928 315.608 32.9903Z" fill="black" stroke="#7F3DFF"/>
</svg>
