<svg width="107" height="91" viewBox="0 0 107 91" fill="none" xmlns="http://www.w3.org/2000/svg">
<rect width="107" height="91" rx="16" fill="#EEE5FF"/>
<path d="M60.5 32.2801C59.9375 31.7183 59.175 31.4027 58.38 31.4027C57.585 31.4027 56.8225 31.7183 56.26 32.2801L44.5 44.0001C46.19 44.0001 51.28 44.0001 62.5 44.0001C63.5072 43.9971 64.49 43.69 65.3198 43.119C66.1495 42.548 66.7874 41.7397 67.15 40.8001C67.15 40.6801 67.24 40.5501 67.28 40.4201L67.4 40.0001C67.4338 39.8384 67.4572 39.6747 67.47 39.5101C67.4753 39.4669 67.4753 39.4232 67.47 39.3801C67.4747 39.3637 67.4747 39.3464 67.47 39.3301L60.5 32.2801Z" fill="#7F3DFF"/>
<path d="M67.4999 24.5201C67.3802 23.2788 66.801 22.1271 65.876 21.2909C64.951 20.4547 63.7468 19.9943 62.4999 20.0001H44.4999C43.2529 19.9943 42.0488 20.4547 41.1238 21.2909C40.1988 22.1271 39.6196 23.2788 39.4999 24.5201C39.4877 24.6798 39.4877 24.8403 39.4999 25.0001V39.0001C39.4899 39.1699 39.4899 39.3402 39.4999 39.5101C39.5236 39.6818 39.5569 39.8521 39.5999 40.0201C39.9573 41.1061 40.5753 42.088 41.3999 42.8801C41.6615 43.0921 41.9467 43.2733 42.2499 43.4201L54.8199 30.8601C55.2843 30.3944 55.8361 30.025 56.4435 29.7729C57.051 29.5209 57.7022 29.3911 58.3599 29.3911C59.0176 29.3911 59.6688 29.5209 60.2762 29.7729C60.8837 30.025 61.4354 30.3944 61.8999 30.8601L67.4999 36.4601V25.0001C67.5121 24.8403 67.5121 24.6798 67.4999 24.5201ZM45.4999 28.0001C45.1043 28.0001 44.7176 27.8828 44.3887 27.663C44.0598 27.4432 43.8035 27.1309 43.6521 26.7654C43.5007 26.4 43.4611 25.9978 43.5383 25.6099C43.6155 25.2219 43.806 24.8655 44.0857 24.5858C44.3654 24.3061 44.7217 24.1157 45.1097 24.0385C45.4977 23.9613 45.8998 24.0009 46.2652 24.1523C46.6307 24.3037 46.9431 24.56 47.1628 24.8889C47.3826 25.2178 47.4999 25.6045 47.4999 26.0001C47.4999 26.5305 47.2892 27.0392 46.9141 27.4143C46.539 27.7893 46.0303 28.0001 45.4999 28.0001Z" fill="#7F3DFF"/>
<path d="M32.7557 59.3636H30.6477V71H32.7557V59.3636ZM34.9474 71H37.0043V65.6932C37.0043 64.6193 37.7202 63.892 38.6065 63.892C39.4759 63.892 40.0724 64.4773 40.0724 65.375V71H42.0895V65.5568C42.0895 64.5739 42.6747 63.892 43.669 63.892C44.4986 63.892 45.1577 64.3807 45.1577 65.4602V71H47.2202V65.142C47.2202 63.1932 46.0952 62.1591 44.4929 62.1591C43.2259 62.1591 42.2599 62.7841 41.8736 63.7557H41.7827C41.4474 62.767 40.6009 62.1591 39.4247 62.1591C38.2543 62.1591 37.3793 62.7614 37.0156 63.7557H36.9134V62.2727H34.9474V71ZM51.8182 71.1761C53.1875 71.1761 54.0057 70.5341 54.3807 69.8011H54.4489V71H56.4261V65.1591C56.4261 62.8523 54.5455 62.1591 52.8807 62.1591C51.0455 62.1591 49.6364 62.9773 49.1818 64.5682L51.1023 64.8409C51.3068 64.2443 51.8864 63.733 52.892 63.733C53.8466 63.733 54.3693 64.2216 54.3693 65.0795V65.1136C54.3693 65.7045 53.75 65.733 52.2102 65.8977C50.517 66.0795 48.8977 66.5852 48.8977 68.5511C48.8977 70.267 50.1534 71.1761 51.8182 71.1761ZM52.3523 69.6648C51.4943 69.6648 50.8807 69.2727 50.8807 68.517C50.8807 67.7273 51.5682 67.3977 52.4886 67.267C53.0284 67.1932 54.108 67.0568 54.375 66.8409V67.8693C54.375 68.8409 53.5909 69.6648 52.3523 69.6648ZM62.2898 74.4545C64.6477 74.4545 66.3864 73.375 66.3864 71.142V62.2727H64.358V63.7159H64.2443C63.9318 63.0852 63.2784 62.1591 61.7386 62.1591C59.7216 62.1591 58.1364 63.7386 58.1364 66.608C58.1364 69.4545 59.7216 70.875 61.733 70.875C63.2273 70.875 63.9261 70.0739 64.2443 69.4318H64.3466V71.0852C64.3466 72.3693 63.4943 72.8977 62.3239 72.8977C61.0852 72.8977 60.5398 72.3125 60.2898 71.8011L58.4375 72.25C58.8125 73.4716 60.0682 74.4545 62.2898 74.4545ZM62.3068 69.2614C60.9489 69.2614 60.233 68.2045 60.233 66.5966C60.233 65.0114 60.9375 63.8466 62.3068 63.8466C63.6307 63.8466 64.358 64.9432 64.358 66.5966C64.358 68.2614 63.6193 69.2614 62.3068 69.2614ZM72.358 71.1705C74.392 71.1705 75.7898 70.1761 76.1534 68.6591L74.233 68.4432C73.9545 69.1818 73.2727 69.5682 72.3864 69.5682C71.0568 69.5682 70.1761 68.6932 70.1591 67.1989H76.2386V66.5682C76.2386 63.5057 74.3977 62.1591 72.25 62.1591C69.75 62.1591 68.1193 63.9943 68.1193 66.6875C68.1193 69.4261 69.7273 71.1705 72.358 71.1705ZM70.1648 65.8125C70.2273 64.6989 71.0511 63.7614 72.2784 63.7614C73.4602 63.7614 74.2557 64.625 74.267 65.8125H70.1648Z" fill="#7F3DFF"/>
</svg>
